<svg xmlns="http://www.w3.org/2000/svg" viewBox="0 0 240 80" role="img" aria-labelledby="tdwTitle tdwDesc">
  <title id="tdwTitle">TDW - Tecnologias para Desenvolvimento Web</title>
  <desc id="tdwDesc">Logotipo com letras estilizadas TDW em gradiente violeta e turquesa.</desc>
  <defs>
    <linearGradient id="tdwGradient" x1="0%" y1="0%" x2="100%" y2="100%">
      <stop offset="0%" stop-color="#5b21b6" />
      <stop offset="55%" stop-color="#7c3aed" />
      <stop offset="100%" stop-color="#06b6d4" />
    </linearGradient>
    <linearGradient id="tdwGlare" x1="0%" y1="30%" x2="100%" y2="70%">
      <stop offset="0%" stop-color="rgba(255,255,255,0.85)" />
      <stop offset="35%" stop-color="rgba(255,255,255,0.35)" />
      <stop offset="100%" stop-color="rgba(255,255,255,0)" />
    </linearGradient>
    <clipPath id="tdwClip">
      <path d="M20 18h60c6 0 11 5 11 11v6c0 6-5 11-11 11H52v16H32V46H20zM96 18h30c14 0 24 9 24 22s-10 22-24 22h-9v12H96zm21 14v16h9c6 0 10-3 10-8s-4-8-10-8zM162 18h40c11 0 18 6 18 15c0 7-4 12-10 14c5 2 9 6 9 13c0 10-7 16-19 16h-38zm21 14v10h15c4 0 7-2 7-5s-3-5-7-5zm0 24v12h17c4 0 7-2 7-6c0-4-3-6-7-6z" />
    </clipPath>
  </defs>
  <g clip-path="url(#tdwClip)">
    <rect x="0" y="0" width="240" height="80" rx="18" fill="url(#tdwGradient)" />
    <rect x="0" y="0" width="240" height="80" rx="18" fill="url(#tdwGlare)" />
  </g>
  <g fill="#0f172a" opacity="0.12">
    <path d="M20 18h60c6 0 11 5 11 11v6c0 6-5 11-11 11H52v16H32V46H20z" />
    <path d="M96 18h30c14 0 24 9 24 22s-10 22-24 22h-9v12H96zm21 14v16h9c6 0 10-3 10-8s-4-8-10-8z" />
    <path d="M162 18h40c11 0 18 6 18 15c0 7-4 12-10 14c5 2 9 6 9 13c0 10-7 16-19 16h-38zm21 14v10h15c4 0 7-2 7-5s-3-5-7-5zm0 24v12h17c4 0 7-2 7-6c0-4-3-6-7-6z" />
  </g>
</svg>
